<svg xmlns="http://www.w3.org/2000/svg" viewBox="0 0 64 64" role="img" aria-label="Slack">
  <defs>
    <linearGradient id="slack-icon-back" x1="10" y1="6" x2="54" y2="58" gradientUnits="userSpaceOnUse">
      <stop offset="0" stop-color="#6b285f"/>
      <stop offset="1" stop-color="#351435"/>
    </linearGradient>
    <linearGradient id="slack-icon-shine" x1="18" y1="11" x2="46" y2="53" gradientUnits="userSpaceOnUse">
      <stop offset="0" stop-color="#ffffff" stop-opacity=".28"/>
      <stop offset=".55" stop-color="#ffffff" stop-opacity=".06"/>
      <stop offset="1" stop-color="#ffffff" stop-opacity="0"/>
    </linearGradient>
  </defs>
  <rect x="5" y="5" width="54" height="54" rx="13" fill="url(#slack-icon-back)"/>
  <rect x="5.75" y="5.75" width="52.5" height="52.5" rx="12.25" fill="none" stroke="#ffffff" stroke-opacity=".35" stroke-width="1.5"/>
  <path d="M20 16h7.5v13H20a6.5 6.5 0 0 1 0-13Z" fill="#36c5f0"/>
  <path d="M44 48h-7.5V35H44a6.5 6.5 0 0 1 0 13Z" fill="#2eb67d"/>
  <path d="M48 20v7.5H35V20a6.5 6.5 0 0 1 13 0Z" fill="#ecb22e"/>
  <path d="M16 44v-7.5h13V44a6.5 6.5 0 0 1-13 0Z" fill="#e01e5a"/>
  <rect x="16" y="31" width="32" height="2" rx="1" fill="#f7efe9" opacity=".88"/>
  <rect x="31" y="16" width="2" height="32" rx="1" fill="#f7efe9" opacity=".88"/>
  <rect x="5" y="5" width="54" height="54" rx="13" fill="url(#slack-icon-shine)"/>
</svg>
